<?xml version="1.0" encoding="UTF-8"?>
<!DOCTYPE svg PUBLIC "-//W3C//DTD SVG 1.1//EN" "http://www.w3.org/Graphics/SVG/1.1/DTD/svg11.dtd">
<!-- Creator: CorelDRAW 2017 -->
<svg xmlns="http://www.w3.org/2000/svg" xml:space="preserve" width="104.721mm" height="118.204mm" version="1.1" style="shape-rendering:geometricPrecision; text-rendering:geometricPrecision; image-rendering:optimizeQuality; fill-rule:evenodd; clip-rule:evenodd"
viewBox="0 0 9504 10728"
 xmlns:xlink="http://www.w3.org/1999/xlink">
 <defs>
  <style type="text/css">
   <![CDATA[
    .str0 {stroke:#2B2A29;stroke-width:272.264}
    .str1 {stroke:black;stroke-width:22.6887}
    .str2 {stroke:#2B2A29;stroke-width:363.019;stroke-linecap:round}
    .fil2 {fill:none}
    .fil0 {fill:#2B2A29}
    .fil1 {fill:#2B2A29;fill-rule:nonzero}
   ]]>
  </style>
 </defs>
 <g id="Vrstva_x0020_1">
  <metadata id="CorelCorpID_0Corel-Layer"/>
  <g id="_2294127525776">
   <g>
    <path class="fil0" d="M588 8371c322,0 584,302 584,675 0,63 -8,124 -22,182l-1124 0c-14,-58 -22,-119 -22,-182 0,-373 261,-675 584,-675z"/>
    <path class="fil1" d="M588 8367c162,0 309,76 416,199 106,123 172,292 172,480 0,63 -7,124 -21,182l-8 0c14,-58 22,-119 22,-182 0,-185 -65,-353 -170,-474 -105,-121 -250,-196 -410,-196 -160,0 -305,75 -410,196 -105,121 -170,289 -170,474 0,63 8,124 22,182l-8 0c-14,-58 -21,-119 -21,-182 0,-187 66,-357 172,-480 106,-123 253,-199 416,-199z"/>
    <line class="fil2 str0" x1="866" y1="9012" x2="855" y2= "9763" />
    <line class="fil2 str0" x1="306" y1="8971" x2="296" y2= "9763" />
   </g>
   <g>
    <path class="fil0" d="M7121 5512c146,-356 278,-733 563,-1005 171,-163 327,-334 485,-504l165 -160c111,-90 64,-52 186,-45 73,1 128,4 200,-7 69,-7 129,-25 195,-52 46,-15 46,-9 88,-31 180,-109 293,-203 404,-408 181,-339 87,-703 -116,-990 -449,-638 -1786,-155 -1491,913 14,38 12,55 34,93 19,30 38,59 49,96 -36,74 -100,187 -145,256 -244,409 -760,1151 -1220,1376 2,-119 390,-946 468,-1098 29,-49 51,-174 90,-259 179,-409 234,-847 441,-1318 52,-114 137,-297 222,-378 63,-58 51,-30 117,-32 32,1 81,-12 109,-19 595,-154 982,-824 664,-1377l-116 -190c-19,-29 -65,-69 -84,-92 -381,-407 -1153,-375 -1473,118 -331,500 -198,912 137,1297 37,40 52,43 55,93 24,712 -486,1745 -845,2316 -78,124 -314,344 -511,513 416,341 865,619 1327,895zm1855 -3190c307,184 412,574 234,872 -178,298 -572,391 -879,207 -307,-184 -412,-574 -234,-872 178,-298 572,-391 879,-207zm-836 -1930c368,230 426,681 235,969 -191,288 -618,353 -925,169 -307,-184 -412,-574 -234,-872 178,-298 556,-495 924,-266z"/>
    <path class="fil0 str1" d="M7674 1078c22,61 260,-7 290,-7 14,33 7,16 -2,53 -4,34 -1,30 -7,68 -4,21 -48,116 22,97 61,-18 91,-216 97,-261 74,-46 15,9 122,-77 34,-28 88,-98 97,-134 -63,-50 -133,47 -211,78l-47 -167c-9,-41 -21,-43 -38,-83 -20,-30 -28,-59 -70,-66 -25,21 -26,8 -14,58 18,89 62,205 53,284 -6,38 -30,42 -64,52l-84 34c-32,11 -52,17 -87,26 -29,7 -65,3 -56,45z"/>
    <path class="fil0 str1" d="M8892 2816c-19,18 -159,55 -200,61 -103,11 -57,80 68,77 27,-2 38,-1 68,-1 21,0 36,3 56,-3 16,58 -11,144 -3,173 46,28 84,8 97,-50 59,-253 -10,-102 129,-230 45,-39 86,-39 99,-103 -41,-30 -37,-16 -141,24 -26,8 -20,12 -52,17 -16,-16 -39,-216 -128,-257 -34,22 -31,24 -25,63 1,19 2,25 3,38 10,54 33,128 28,191z"/>
    <path class="fil2 str2" d="M4076 7660c55,229 295,367 537,309 242,-58 393,-291 338,-519 -110,-457 -591,-734 -1075,-618 -484,116 -786,581 -677,1038 165,686 886,1101 1612,927 725,-174 1180,-872 1015,-1558 -220,-915 -1182,-1468 -2149,-1235 -967,232 -1573,1162 -1353,2077 275,1143 1477,1835 2686,1544 1209,-290 1966,-1453 1691,-2596 -330,-1372 -1773,-2202 -3224,-1853 -1451,349 -2359,1743 -2030,3115 385,1601 2068,2569 3761,2162 1692,-407 2753,-2034 2368,-3635 -440,-1829 -2364,-2936 -4298,-2471 -1934,465 -3146,2324 -2706,4154"/>
   </g>
  </g>
 </g>
</svg>
